<svg width="115" height="117" viewBox="0 0 115 117" fill="none" xmlns="http://www.w3.org/2000/svg">
<path d="M69.8477 115.44C62.9631 115.446 56.1337 114.213 49.6856 111.801C49.3167 111.663 48.9786 111.453 48.6907 111.184C48.4028 110.916 48.1707 110.593 48.0076 110.234C47.8445 109.875 47.7536 109.488 47.7402 109.094C47.7267 108.701 47.791 108.308 47.9292 107.939C48.0675 107.57 48.277 107.232 48.5459 106.944C48.8148 106.657 49.1378 106.424 49.4964 106.261C49.855 106.098 50.2422 106.007 50.6359 105.994C51.0296 105.98 51.4221 106.045 51.791 106.183C60.3397 109.343 69.5648 110.217 78.5551 108.721C87.5454 107.225 95.9899 103.41 103.055 97.6522C81.0166 97.8866 59.46 87.4715 48.7354 70.7596C41.8408 60.0164 39.5869 47.3748 42.2148 34.201C44.2272 24.6479 48.3584 15.6683 54.3037 7.92465C42.9522 11.5365 33.183 18.9328 26.627 28.8787C20.0709 38.8247 17.1248 50.7184 18.2803 62.5746C18.3205 62.9673 18.2829 63.3642 18.1694 63.7423C18.056 64.1205 17.8691 64.4725 17.6193 64.7783C17.3696 65.0841 17.0619 65.3376 16.7139 65.5242C16.366 65.7108 15.9847 65.8269 15.5918 65.8659C15.1989 65.9048 14.8022 65.8658 14.4244 65.7511C14.0467 65.6364 13.6952 65.4483 13.3903 65.1975C13.0853 64.9467 12.8329 64.6382 12.6475 64.2896C12.462 63.9411 12.3472 63.5594 12.3096 63.1663C10.8522 48.2497 15.2212 33.3476 24.5021 21.5792C33.7829 9.81082 47.2562 2.08849 62.1016 0.028651C62.7223 -0.0577562 63.3544 0.0524231 63.9093 0.343699C64.4642 0.634975 64.9139 1.09272 65.1953 1.65267C65.4767 2.21263 65.5757 2.84665 65.4783 3.46572C65.3809 4.0848 65.0921 4.65782 64.6523 5.10433C49.3086 20.6898 39.9971 46.0331 53.7842 67.5193C64.6621 84.4686 88.0674 94.1629 110.713 91.0989C111.32 91.0167 111.938 91.1226 112.484 91.4023C113.029 91.682 113.476 92.1221 113.764 92.6634C114.052 93.2047 114.167 93.8212 114.094 94.4298C114.02 95.0384 113.762 95.6101 113.354 96.0677C107.871 102.173 101.162 107.053 93.666 110.391C86.1696 113.729 78.0537 115.449 69.8477 115.44V115.44Z" fill="#24252A"/>
<path d="M22 116.631C17.6488 116.631 13.3953 115.341 9.77746 112.924C6.15958 110.506 3.33981 107.07 1.67468 103.05C0.00955212 99.0303 -0.426148 94.6068 0.422727 90.3392C1.2716 86.0716 3.36691 82.1516 6.44366 79.0749C9.52042 75.9981 13.4404 73.9028 17.708 73.0539C21.9756 72.2051 26.3991 72.6407 30.4191 74.3059C34.439 75.971 37.875 78.7908 40.2924 82.4087C42.7097 86.0265 44 90.28 44 94.6312C43.9934 100.464 41.6734 106.056 37.5491 110.18C33.4247 114.305 27.8327 116.625 22 116.631V116.631ZM22 78.6312C18.8355 78.6312 15.7421 79.5696 13.1109 81.3277C10.4797 83.0858 8.42896 85.5847 7.21795 88.5083C6.00695 91.4319 5.69007 94.649 6.30743 97.7527C6.92479 100.856 8.44864 103.707 10.6863 105.945C12.9239 108.183 15.7748 109.706 18.8785 110.324C21.9822 110.941 25.1993 110.624 28.1229 109.413C31.0465 108.202 33.5454 106.152 35.3035 103.52C37.0616 100.889 38 97.7957 38 94.6312C37.9951 90.3892 36.3079 86.3224 33.3083 83.3229C30.3088 80.3233 26.242 78.6361 22 78.6312V78.6312Z" fill="#24252A"/>
</svg>
