<svg width="195" height="195" viewBox="0 0 195 195" fill="none" xmlns="http://www.w3.org/2000/svg">
<circle cx="97.5" cy="97.5" r="97.5" fill="#24252A"/>
<path d="M46.4 132.5C41.5333 132.5 37.1 131.7 33.1 130.1C29.1 128.5 25.6667 126.167 22.8 123.1C19.9333 120.033 17.7 116.267 16.1 111.8C14.5667 107.267 13.8 102.1 13.8 96.3C13.8 90.5 14.6667 85.3667 16.4 80.9C18.2 76.3667 20.6 72.5667 23.6 69.5C26.6 66.4333 30.1 64.1 34.1 62.5C38.1 60.9 42.3667 60.1 46.9 60.1C49.7667 60.1 52.3333 60.3 54.6 60.7C56.9333 61.1 58.9333 61.5667 60.6 62.1C62.3333 62.6333 63.7333 63.1667 64.8 63.7C65.8667 64.2333 66.6 64.6333 67 64.9L64.2 72.9C63.6 72.5 62.7333 72.0667 61.6 71.6C60.4667 71.1333 59.1667 70.6667 57.7 70.2C56.3 69.7333 54.7333 69.3667 53 69.1C51.3333 68.7667 49.6333 68.6 47.9 68.6C44.2333 68.6 40.9333 69.2333 38 70.5C35.0667 71.7667 32.5667 73.6 30.5 76C28.4333 78.4 26.8333 81.3333 25.7 84.8C24.6333 88.2 24.1 92.0333 24.1 96.3C24.1 100.433 24.5667 104.2 25.5 107.6C26.5 111 27.9667 113.933 29.9 116.4C31.8333 118.8 34.2333 120.667 37.1 122C40.0333 123.333 43.4333 124 47.3 124C51.7667 124 55.4667 123.533 58.4 122.6C61.3333 121.667 63.5333 120.833 65 120.1L67.5 128.1C67.0333 128.433 66.2 128.867 65 129.4C63.8 129.867 62.3 130.333 60.5 130.8C58.7 131.267 56.6 131.667 54.2 132C51.8 132.333 49.2 132.5 46.4 132.5ZM75.3117 97.1H94.2117V76.5H102.212V97.1H121.112V105H102.212V125.7H94.2117V105H75.3117V97.1ZM131.757 97.1H150.657V76.5H158.657V97.1H177.557V105H158.657V125.7H150.657V105H131.757V97.1Z" fill="#3E9C87"/>
</svg>
