<svg width="164" height="164" viewBox="0 0 164 164" fill="none" xmlns="http://www.w3.org/2000/svg">
<circle cx="82" cy="82" r="82" fill="#3E9C87"/>
<path opacity="0.05" d="M102.136 125.056L102.106 107.859C102.106 105.074 101.456 102.354 100.208 99.8897C116.885 96.5292 125 86.6376 125 69.7047C125 63.0164 123.034 57.1111 119.158 52.146C119.454 51.2058 119.673 50.2329 119.809 49.2363C120.364 45.1759 119.741 42.5213 119.238 40.3858L119.158 40.0417C118.608 37.6808 117.949 35.9961 117.922 35.9249L117.594 35.0885L117.266 34.2521L116.373 34.1572L115.478 34.0623C115.478 34.0623 114.889 34 113.996 34C112.758 34 110.922 34.1246 109.186 34.7148L108.607 34.9106C106.419 35.6491 104.353 36.3491 101.461 38.0812C100.616 38.5884 99.6906 39.1668 98.7002 39.8134C94.2243 38.7011 89.4084 38.1346 84.3678 38.1346C79.277 38.1346 74.4197 38.7041 69.9142 39.8282C68.912 39.1757 67.9807 38.5914 67.1293 38.0812C64.238 36.3491 62.1715 35.6521 59.9838 34.9106L59.4043 34.7148C57.6749 34.1246 55.836 34 54.5973 34C53.7045 34 53.1162 34.0623 53.1162 34.0623L52.2233 34.1572L51.3364 34.2491L51.0053 35.0826L50.6713 35.922C50.6417 35.9991 49.9824 37.6838 49.4325 40.0477L49.3527 40.3888C48.8501 42.5213 48.2263 45.1788 48.7821 49.2363C48.924 50.2626 49.1517 51.268 49.4621 52.235C45.6632 57.1763 43.7386 63.049 43.7386 69.7047C43.7386 86.596 51.8627 96.4817 68.5631 99.8689C67.9896 101.02 67.5432 102.236 67.2269 103.499C66.6445 103.698 66.1093 103.831 65.6363 103.906C64.9327 104.012 64.1966 104.066 63.4516 104.066C61.4235 104.066 59.83 103.668 59.2092 103.298C58.2839 102.746 56.6313 101.141 55.0289 98.7952C53.6601 96.7931 51.5256 94.1742 49.1399 93.0797C47.0763 92.1336 44.8916 91.5908 43.1414 91.5908C42.7334 91.5908 42.358 91.6204 42.0298 91.6738C40.5014 91.917 39.2242 92.7594 38.5295 93.9873C37.9293 95.0462 37.8347 96.28 38.2693 97.3715C38.9168 98.9969 40.7852 100.293 42.2397 101.094C42.9552 101.488 44.5013 102.93 45.403 104.383C46.08 105.475 46.3934 106.252 46.828 107.325C47.0852 107.963 47.369 108.657 47.7533 109.497C49.1428 112.528 53.4798 115.203 53.9705 115.497C56.3534 116.929 60.3592 117.389 63.3038 117.523L63.6674 117.531H63.6704C64.3799 117.531 65.3555 117.463 66.6385 117.321V125.071C66.6445 126.64 65.051 126.996 62.9431 126.963L64.5602 127.509C70.7538 129.731 77.4056 131 84.3678 131C91.33 131 97.9818 129.731 104.184 127.512L106.263 126.735C104.161 126.664 102.153 126.32 102.136 125.056Z" fill="black"/>
<path opacity="0.07" d="M104.68 127.414C103.466 127.554 100.85 127.089 100.85 125.044V107.742C100.85 104.481 99.8693 101.33 98.0515 98.6443C115.736 95.7915 124 86.443 124 69.3947C124 62.7262 121.949 56.8924 117.904 52.0394C118.313 50.9513 118.6 49.8036 118.765 48.6202C119.288 44.8164 118.717 42.4018 118.215 40.2704L118.134 39.9246C117.602 37.6561 116.974 36.0583 116.947 35.9927L116.615 35.152L115.709 35.0566C115.709 35.0566 115.177 35 114.367 35C113.228 35 111.544 35.1103 109.984 35.6409L109.398 35.8377C107.263 36.5561 105.245 37.2328 102.458 38.8902C101.466 39.4804 100.36 40.175 99.1667 40.959C94.5834 39.7636 89.6233 39.1555 84.4061 39.1555C79.1381 39.1555 74.1361 39.7666 69.5199 40.9739C68.315 40.184 67.2028 39.4864 66.2042 38.8902C63.4177 37.2328 61.3996 36.5531 59.2649 35.8377L58.6789 35.6409C57.1212 35.1133 55.4349 35 54.2958 35C53.4856 35 52.9534 35.0566 52.9534 35.0566L52.0505 35.152L51.7126 35.9957C51.6857 36.0612 51.0579 37.6591 50.5257 39.9276L50.445 40.2734C49.9397 42.4048 49.3686 44.8164 49.8948 48.6202C50.0623 49.8334 50.3612 51.0079 50.7858 52.1199C46.8183 56.9491 44.8092 62.7531 44.8092 69.3947C44.8092 86.3954 53.079 95.7408 70.7786 98.6264C69.5976 100.385 68.7724 102.368 68.3479 104.481C67.3612 104.869 66.4673 105.125 65.684 105.244C64.8976 105.363 64.0784 105.423 63.2503 105.423C61.1873 105.423 59.2051 105.038 58.1975 104.442C56.882 103.664 55.0373 101.718 53.4975 99.4789C52.4511 97.9586 50.3672 95.2549 48.1518 94.2473C46.2533 93.3828 44.271 92.885 42.7074 92.885C42.3785 92.885 42.0795 92.9088 41.8164 92.9506C40.7221 93.1235 39.8192 93.7018 39.3408 94.5424C38.9581 95.2102 38.8954 95.9822 39.1644 96.653C39.6996 97.9884 41.6818 99.1868 42.51 99.6399C43.5116 100.188 45.2576 101.858 46.2592 103.468C47.0097 104.672 47.3655 105.545 47.8169 106.648C48.071 107.271 48.3491 107.951 48.7258 108.771C49.7154 110.914 52.771 113.159 54.4214 114.145C56.6757 115.493 60.8614 115.868 63.1576 115.97L63.4894 115.976C64.3834 115.976 65.8813 115.842 67.9592 115.573V125.044C67.9592 127.366 64.9963 127.459 64.2698 127.459C64.1771 127.459 65.7737 128.007 65.7737 128.007C71.6426 129.927 77.8943 131 84.4061 131C90.9179 131 97.1695 129.927 103.036 128.01C103.036 128.01 104.773 127.402 104.68 127.414Z" fill="black"/>
<path d="M122 69.7271C122 62.8781 119.691 57.1974 115.748 52.7441C116.176 51.7805 116.622 50.4878 116.844 48.863C117.352 45.1568 116.752 42.9331 116.244 40.7569C115.736 38.5806 115.137 37.0508 115.137 37.0508C115.137 37.0508 112.414 36.7721 110.108 37.5607C107.801 38.3494 105.817 38.9513 102.955 40.665C101.617 41.4655 100.271 42.3431 99.2047 43.0547C94.648 41.7857 89.6365 41.1334 84.3651 41.1334C79.0465 41.1334 73.9907 41.7887 69.4015 43.0666C68.3325 42.352 66.977 41.4685 65.6303 40.662C62.7687 38.9483 60.7842 38.3464 58.4778 37.5578C56.1714 36.7691 53.4486 37.0478 53.4486 37.0478C53.4486 37.0478 52.8491 38.5777 52.3412 40.7539C51.8332 42.9302 51.2337 45.1539 51.7417 48.86C51.9691 50.5263 52.4298 51.8427 52.8698 52.8122C49.0011 57.2389 46.7331 62.8841 46.7331 69.7241C46.7331 87.4632 56.2777 95.5604 73.6688 97.6981C71.64 99.8506 70.2786 102.608 69.8208 105.677C68.678 106.181 67.3609 106.655 66.094 106.845C62.8337 107.34 59.3874 106.845 57.7277 105.858C56.068 104.87 54.0983 102.647 52.6217 100.482C51.3755 98.6558 49.577 96.5358 47.9469 95.7887C45.794 94.8014 43.7003 94.4307 42.5338 94.6146C41.3643 94.8014 40.8121 95.6642 41.0572 96.2838C41.3023 96.9005 42.4717 97.8285 43.7032 98.5075C44.9347 99.1865 46.8424 101.04 47.9498 102.83C49.1842 104.829 49.4264 105.982 50.4718 108.265C51.2072 109.872 53.7232 111.879 55.5158 112.959C57.0544 113.887 60.1286 114.414 63.4539 114.565C64.6026 114.619 67.3166 114.281 69.6053 113.955V125.073C69.6053 126.968 67.8777 128.409 66.0881 128.077C71.8319 130.016 77.9656 131 84.3651 131C90.7616 131 96.8953 130.016 102.645 128.083C100.858 128.412 99.1308 126.971 99.1308 125.076V107.868C99.1308 103.927 97.5745 100.367 95.0762 97.7129C112.34 95.6315 122 87.7271 122 69.7271ZM46.68 97.5765C46.2252 97.3423 45.9801 96.9094 46.1336 96.604C46.2872 96.2986 46.7833 96.2423 47.2381 96.4765C47.6929 96.7108 47.938 97.1436 47.7845 97.449C47.6309 97.7544 47.1348 97.8108 46.68 97.5765ZM50.2592 99.815C50.02 100.076 49.5061 99.9929 49.1104 99.6312C48.7147 99.2695 48.5877 98.7625 48.8269 98.5016C49.0661 98.2407 49.58 98.3237 49.9757 98.6854C50.3714 99.0471 50.4984 99.5541 50.2592 99.815ZM52.4859 103.521C52.1846 103.735 51.6737 103.536 51.3459 103.076C51.0182 102.617 50.9975 102.068 51.2987 101.855C51.5999 101.641 52.1108 101.84 52.4386 102.3C52.7635 102.759 52.7871 103.308 52.4859 103.521ZM55.6841 106.311C55.4804 106.643 54.9015 106.658 54.3936 106.347C53.8857 106.035 53.6376 105.514 53.8414 105.182C54.0451 104.849 54.6239 104.835 55.1319 105.146C55.6398 105.457 55.8879 105.979 55.6841 106.311ZM58.7081 109.042C58.0791 108.965 57.6125 108.57 57.6657 108.161C57.7159 107.752 58.2681 107.485 58.8942 107.562C59.5232 107.639 59.9898 108.034 59.9367 108.443C59.8864 108.849 59.3372 109.119 58.7081 109.042ZM63.5838 109.75C62.9134 109.712 62.3907 109.326 62.4173 108.894C62.4439 108.461 63.0079 108.138 63.6783 108.176C64.3487 108.215 64.8714 108.6 64.8448 109.033C64.8182 109.469 64.2542 109.789 63.5838 109.75ZM68.1848 109.288C67.4701 109.288 66.8913 108.914 66.8913 108.455C66.8913 107.995 67.4701 107.622 68.1848 107.622C68.8995 107.622 69.4783 107.995 69.4783 108.455C69.4783 108.914 68.8965 109.288 68.1848 109.288Z" fill="white"/>
</svg>
