<svg width="195" height="195" viewBox="0 0 195 195" fill="none" xmlns="http://www.w3.org/2000/svg">
<path d="M97.5 195C151.348 195 195 151.348 195 97.5C195 43.6522 151.348 0 97.5 0C43.6522 0 0 43.6522 0 97.5C0 151.348 43.6522 195 97.5 195Z" fill="#24252A"/>
<path d="M86.0445 112.4C96.1112 112.8 103.478 115 108.145 119C112.878 123 115.245 128.433 115.245 135.3C115.245 138.367 114.711 141.2 113.645 143.8C112.645 146.4 111.078 148.633 108.945 150.5C106.878 152.367 104.245 153.833 101.045 154.9C97.8445 155.967 94.0445 156.5 89.6445 156.5C87.9112 156.5 86.1445 156.367 84.3445 156.1C82.5445 155.833 80.8779 155.5 79.3445 155.1C77.8112 154.7 76.4445 154.3 75.2445 153.9C74.0445 153.5 73.1779 153.167 72.6445 152.9L74.4445 144.8C75.5779 145.333 77.4112 146.033 79.9445 146.9C82.5445 147.767 85.7112 148.2 89.4445 148.2C92.4445 148.2 94.9445 147.867 96.9445 147.2C99.0112 146.533 100.678 145.633 101.945 144.5C103.211 143.367 104.111 142.067 104.645 140.6C105.245 139.067 105.545 137.467 105.545 135.8C105.545 133.267 105.111 131.033 104.245 129.1C103.378 127.1 101.845 125.433 99.6445 124.1C97.4445 122.767 94.5112 121.767 90.8445 121.1C87.1779 120.367 82.5445 120 76.9445 120C77.3445 116.733 77.6445 113.667 77.8445 110.8C78.1112 107.933 78.3445 105.133 78.5445 102.4C78.7445 99.6667 78.9112 96.9667 79.0445 94.3C79.1779 91.5667 79.3112 88.7 79.4445 85.7H112.845V93.6H87.5445C87.4779 94.6 87.3779 95.9667 87.2445 97.7C87.1112 99.3667 86.9779 101.133 86.8445 103C86.7112 104.8 86.5779 106.567 86.4445 108.3C86.3112 110.033 86.1779 111.4 86.0445 112.4Z" fill="#3E9C87"/>
<path d="M62.056 44.736H66.712V78H62.056V62.64H45.784V78H41.128V44.736H45.784V58.608H62.056V44.736ZM97.1958 44.736V48.768H86.7318V78H82.0758V48.768H71.6118V44.736H97.1958ZM117.04 73.392C116.72 72.624 116.288 71.648 115.744 70.464C115.232 69.28 114.672 68 114.064 66.624C113.456 65.248 112.8 63.84 112.096 62.4C111.424 60.928 110.784 59.552 110.176 58.272C109.568 56.96 108.992 55.792 108.448 54.768C107.936 53.744 107.52 52.96 107.2 52.416C106.848 56.192 106.56 60.288 106.336 64.704C106.112 69.088 105.92 73.52 105.76 78H101.2C101.328 75.12 101.472 72.224 101.632 69.312C101.792 66.368 101.968 63.488 102.16 60.672C102.384 57.824 102.608 55.056 102.832 52.368C103.088 49.68 103.36 47.136 103.648 44.736H107.728C108.592 46.144 109.52 47.808 110.512 49.728C111.504 51.648 112.496 53.664 113.488 55.776C114.48 57.856 115.44 59.952 116.368 62.064C117.296 64.144 118.144 66.048 118.912 67.776C119.68 66.048 120.528 64.144 121.456 62.064C122.384 59.952 123.344 57.856 124.336 55.776C125.328 53.664 126.32 51.648 127.312 49.728C128.304 47.808 129.232 46.144 130.096 44.736H134.176C135.264 55.456 136.08 66.544 136.624 78H132.064C131.904 73.52 131.712 69.088 131.488 64.704C131.264 60.288 130.976 56.192 130.624 52.416C130.304 52.96 129.872 53.744 129.328 54.768C128.816 55.792 128.256 56.96 127.648 58.272C127.04 59.552 126.384 60.928 125.68 62.4C125.008 63.84 124.368 65.248 123.76 66.624C123.152 68 122.576 69.28 122.032 70.464C121.52 71.648 121.104 72.624 120.784 73.392H117.04ZM163.941 73.968V78H143.925V44.736H148.581V73.968H163.941Z" fill="#3E9C87"/>
</svg>
