<svg width="195" height="195" viewBox="0 0 195 195" fill="none" xmlns="http://www.w3.org/2000/svg">
<path d="M97.5 195C151.348 195 195 151.348 195 97.5C195 43.6522 151.348 0 97.5 0C43.6522 0 0 43.6522 0 97.5C0 151.348 43.6522 195 97.5 195Z" fill="#24252A"/>
<path d="M68 63C77.7333 63 85.2 64.8667 90.4 68.6C95.6667 72.2667 98.3 77.7667 98.3 85.1C98.3 89.1 97.5667 92.5333 96.1 95.4C94.7 98.2 92.6333 100.5 89.9 102.3C87.2333 104.033 83.9667 105.3 80.1 106.1C76.2333 106.9 71.8667 107.3 67 107.3H59.3V133H49.6V64.7C52.3333 64.0333 55.3667 63.6 58.7 63.4C62.1 63.1333 65.2 63 68 63ZM68.8 71.5C64.6667 71.5 61.5 71.6 59.3 71.8V99H66.6C69.9333 99 72.9333 98.8 75.6 98.4C78.2667 97.9333 80.5 97.2 82.3 96.2C84.1667 95.1333 85.6 93.7 86.6 91.9C87.6 90.1 88.1 87.8 88.1 85C88.1 82.3333 87.5667 80.1333 86.5 78.4C85.5 76.6667 84.1 75.3 82.3 74.3C80.5667 73.2333 78.5333 72.5 76.2 72.1C73.8667 71.7 71.4 71.5 68.8 71.5ZM121.94 126.3C125.74 126.3 128.54 125.8 130.34 124.8C132.207 123.8 133.14 122.2 133.14 120C133.14 117.733 132.24 115.933 130.44 114.6C128.64 113.267 125.673 111.767 121.54 110.1C119.54 109.3 117.607 108.5 115.74 107.7C113.94 106.833 112.373 105.833 111.04 104.7C109.707 103.567 108.64 102.2 107.84 100.6C107.04 99 106.64 97.0333 106.64 94.7C106.64 90.1 108.34 86.4667 111.74 83.8C115.14 81.0667 119.773 79.7 125.64 79.7C127.107 79.7 128.573 79.8 130.04 80C131.507 80.1333 132.873 80.3333 134.14 80.6C135.407 80.8 136.507 81.0333 137.44 81.3C138.44 81.5667 139.207 81.8 139.74 82L138.04 90C137.04 89.4667 135.473 88.9333 133.34 88.4C131.207 87.8 128.64 87.5 125.64 87.5C123.04 87.5 120.773 88.0333 118.84 89.1C116.907 90.1 115.94 91.7 115.94 93.9C115.94 95.0333 116.14 96.0333 116.54 96.9C117.007 97.7667 117.673 98.5667 118.54 99.3C119.473 99.9667 120.607 100.6 121.94 101.2C123.273 101.8 124.873 102.433 126.74 103.1C129.207 104.033 131.407 104.967 133.34 105.9C135.273 106.767 136.907 107.8 138.24 109C139.64 110.2 140.707 111.667 141.44 113.4C142.173 115.067 142.54 117.133 142.54 119.6C142.54 124.4 140.74 128.033 137.14 130.5C133.607 132.967 128.54 134.2 121.94 134.2C117.34 134.2 113.74 133.8 111.14 133C108.54 132.267 106.773 131.7 105.84 131.3L107.54 123.3C108.607 123.7 110.307 124.3 112.64 125.1C114.973 125.9 118.073 126.3 121.94 126.3Z" fill="#3E9C87"/>
</svg>
