<svg width="1072" height="693" viewBox="0 0 1072 693" fill="none" xmlns="http://www.w3.org/2000/svg">
<path d="M565.194 625C844.65 625 1071.19 611.121 1071.19 594C1071.19 576.879 844.65 563 565.194 563C285.737 563 59.1935 576.879 59.1935 594C59.1935 611.121 285.737 625 565.194 625Z" fill="#3F3D56"/>
<path opacity="0.1" d="M565.194 614C803.228 614 996.194 604.822 996.194 593.5C996.194 582.178 803.228 573 565.194 573C327.159 573 134.194 582.178 134.194 593.5C134.194 604.822 327.159 614 565.194 614Z" fill="black"/>
<path d="M212.194 693C329.385 693 424.387 684.717 424.387 674.5C424.387 664.283 329.385 656 212.194 656C95.0023 656 0 664.283 0 674.5C0 684.717 95.0023 693 212.194 693Z" fill="#3F3D56"/>
<path opacity="0.1" d="M212.194 686.435C312.015 686.435 392.935 680.958 392.935 674.202C392.935 667.445 312.015 661.968 212.194 661.968C112.373 661.968 31.4516 667.445 31.4516 674.202C31.4516 680.958 112.373 686.435 212.194 686.435Z" fill="black"/>
<path d="M948.194 0H196.194V590H948.194V0Z" fill="#3F3D56"/>
<path d="M563.638 80.629H378.12C377.824 80.63 377.531 80.572 377.257 80.459C376.984 80.346 376.735 80.181 376.525 79.971C376.316 79.762 376.15 79.514 376.036 79.24C375.923 78.967 375.864 78.674 375.864 78.378C375.864 78.082 375.923 77.789 376.036 77.515C376.15 77.242 376.316 76.993 376.525 76.784C376.735 76.575 376.984 76.409 377.257 76.296C377.531 76.183 377.824 76.126 378.12 76.126H563.638C564.234 76.128 564.806 76.365 565.227 76.787C565.648 77.209 565.885 77.781 565.885 78.378C565.885 78.974 565.648 79.546 565.227 79.968C564.806 80.39 564.234 80.628 563.638 80.629Z" fill="#F2F2F2"/>
<path d="M766.717 105.395H474.932C474.335 105.395 473.762 105.158 473.34 104.735C472.918 104.313 472.68 103.741 472.68 103.143C472.68 102.546 472.918 101.974 473.34 101.551C473.762 101.129 474.335 100.892 474.932 100.892H766.717C767.013 100.892 767.305 100.95 767.579 101.063C767.852 101.177 768.1 101.342 768.309 101.551C768.518 101.76 768.684 102.009 768.797 102.282C768.91 102.555 768.968 102.848 768.968 103.143C768.968 103.439 768.91 103.732 768.797 104.005C768.684 104.278 768.518 104.526 768.309 104.735C768.1 104.945 767.852 105.11 767.579 105.223C767.305 105.337 767.013 105.395 766.717 105.395Z" fill="#F2F2F2"/>
<path d="M564.539 130.161H379.021C378.424 130.161 377.851 129.923 377.429 129.501C377.007 129.079 376.77 128.506 376.77 127.909C376.77 127.312 377.007 126.739 377.429 126.317C377.851 125.895 378.424 125.658 379.021 125.658H564.539C565.136 125.658 565.708 125.895 566.131 126.317C566.553 126.739 566.79 127.312 566.79 127.909C566.79 128.506 566.553 129.079 566.131 129.501C565.708 129.923 565.136 130.161 564.539 130.161Z" fill="#F2F2F2"/>
<path d="M766.717 130.611H581.199C580.602 130.611 580.029 130.374 579.607 129.951C579.185 129.529 578.948 128.957 578.948 128.359C578.948 127.762 579.185 127.19 579.607 126.767C580.029 126.345 580.602 126.108 581.199 126.108H766.717C767.314 126.108 767.887 126.345 768.309 126.767C768.731 127.19 768.968 127.762 768.968 128.359C768.968 128.957 768.731 129.529 768.309 129.951C767.887 130.374 767.314 130.611 766.717 130.611Z" fill="#F2F2F2"/>
<path d="M564.989 154.926H379.471C378.874 154.926 378.301 154.689 377.879 154.267C377.457 153.845 377.22 153.272 377.22 152.675C377.22 152.078 377.457 151.505 377.879 151.083C378.301 150.661 378.874 150.423 379.471 150.423H564.989C565.586 150.423 566.159 150.661 566.581 151.083C567.003 151.505 567.24 152.078 567.24 152.675C567.24 153.272 567.003 153.845 566.581 154.267C566.159 154.689 565.586 154.926 564.989 154.926Z" fill="#F2F2F2"/>
<path d="M565.439 179.692H379.922C379.324 179.692 378.752 179.455 378.33 179.033C377.907 178.61 377.67 178.038 377.67 177.441C377.67 176.843 377.907 176.271 378.33 175.849C378.752 175.426 379.324 175.189 379.922 175.189H565.439C566.036 175.189 566.609 175.426 567.031 175.849C567.454 176.271 567.691 176.843 567.691 177.441C567.691 178.038 567.454 178.61 567.031 179.033C566.609 179.455 566.036 179.692 565.439 179.692Z" fill="#F2F2F2"/>
<path d="M649.643 81.079H596.509C595.912 81.079 595.339 80.842 594.917 80.42C594.495 79.998 594.258 79.425 594.258 78.828C594.258 78.231 594.495 77.658 594.917 77.236C595.339 76.814 595.912 76.577 596.509 76.577H649.643C650.24 76.577 650.812 76.814 651.235 77.236C651.657 77.658 651.894 78.231 651.894 78.828C651.894 79.425 651.657 79.998 651.235 80.42C650.812 80.842 650.24 81.079 649.643 81.079Z" fill="#F2F2F2"/>
<path d="M649.643 154.926H596.509C595.912 154.926 595.339 154.689 594.917 154.267C594.495 153.845 594.258 153.272 594.258 152.675C594.258 152.078 594.495 151.505 594.917 151.083C595.339 150.661 595.912 150.423 596.509 150.423H649.643C650.24 150.423 650.812 150.661 651.235 151.083C651.657 151.505 651.894 152.078 651.894 152.675C651.894 153.272 651.657 153.845 651.235 154.267C650.812 154.689 650.24 154.926 649.643 154.926Z" fill="#F2F2F2"/>
<path d="M649.643 179.242H596.509C596.213 179.242 595.92 179.185 595.646 179.072C595.372 178.959 595.123 178.793 594.914 178.584C594.704 178.375 594.538 178.126 594.425 177.853C594.311 177.58 594.253 177.286 594.253 176.99C594.253 176.694 594.311 176.401 594.425 176.128C594.538 175.854 594.704 175.606 594.914 175.397C595.123 175.187 595.372 175.022 595.646 174.909C595.92 174.796 596.213 174.738 596.509 174.739H649.643C649.939 174.738 650.232 174.796 650.506 174.909C650.779 175.022 651.028 175.187 651.238 175.397C651.447 175.606 651.614 175.854 651.727 176.128C651.84 176.401 651.899 176.694 651.899 176.99C651.899 177.286 651.84 177.58 651.727 177.853C651.614 178.126 651.447 178.375 651.238 178.584C651.028 178.793 650.779 178.959 650.506 179.072C650.232 179.185 649.939 179.242 649.643 179.242Z" fill="#F2F2F2"/>
<path d="M738.799 179.242H685.666C685.069 179.24 684.498 179.003 684.077 178.581C683.655 178.159 683.419 177.587 683.419 176.99C683.419 176.394 683.655 175.822 684.077 175.4C684.498 174.978 685.069 174.74 685.666 174.739H738.799C739.095 174.738 739.389 174.796 739.662 174.909C739.936 175.022 740.185 175.187 740.394 175.397C740.604 175.606 740.77 175.854 740.884 176.128C740.997 176.401 741.055 176.694 741.055 176.99C741.055 177.286 740.997 177.58 740.884 177.853C740.77 178.126 740.604 178.375 740.394 178.584C740.185 178.793 739.936 178.959 739.662 179.072C739.389 179.185 739.095 179.242 738.799 179.242Z" fill="#F2F2F2"/>
<path d="M430.804 105.395H377.67C377.073 105.395 376.5 105.158 376.078 104.735C375.656 104.313 375.419 103.741 375.419 103.143C375.419 102.546 375.656 101.974 376.078 101.551C376.5 101.129 377.073 100.892 377.67 100.892H430.804C431.401 100.892 431.974 101.129 432.396 101.551C432.818 101.974 433.055 102.546 433.055 103.143C433.055 103.741 432.818 104.313 432.396 104.735C431.974 105.158 431.401 105.395 430.804 105.395Z" fill="#F2F2F2"/>
<path d="M563.863 445.361H378.346C377.748 445.361 377.176 445.123 376.754 444.701C376.331 444.279 376.094 443.706 376.094 443.109C376.094 442.512 376.331 441.939 376.754 441.517C377.176 441.095 377.748 440.858 378.346 440.858H563.863C564.46 440.858 565.033 441.095 565.455 441.517C565.878 441.939 566.115 442.512 566.115 443.109C566.115 443.706 565.878 444.279 565.455 444.701C565.033 445.123 564.46 445.361 563.863 445.361Z" fill="#F2F2F2"/>
<path d="M562.963 494.892H377.445C376.848 494.892 376.275 494.655 375.853 494.233C375.431 493.81 375.194 493.238 375.194 492.641C375.194 492.043 375.431 491.471 375.853 491.049C376.275 490.626 376.848 490.389 377.445 490.389H562.963C563.56 490.389 564.132 490.626 564.555 491.049C564.977 491.471 565.214 492.043 565.214 492.641C565.214 493.238 564.977 493.81 564.555 494.233C564.132 494.655 563.56 494.892 562.963 494.892Z" fill="#F2F2F2"/>
<path d="M563.413 519.658H377.895C377.599 519.658 377.306 519.601 377.032 519.488C376.759 519.375 376.51 519.209 376.3 519C376.091 518.791 375.924 518.542 375.811 518.269C375.697 517.996 375.639 517.702 375.639 517.406C375.639 517.11 375.697 516.817 375.811 516.544C375.924 516.27 376.091 516.022 376.3 515.813C376.51 515.604 376.759 515.438 377.032 515.325C377.306 515.212 377.599 515.154 377.895 515.155H563.413C563.709 515.154 564.002 515.212 564.276 515.325C564.55 515.438 564.798 515.604 565.008 515.813C565.218 516.022 565.384 516.27 565.497 516.544C565.611 516.817 565.669 517.11 565.669 517.406C565.669 517.702 565.611 517.996 565.497 518.269C565.384 518.542 565.218 518.791 565.008 519C564.798 519.209 564.55 519.375 564.276 519.488C564.002 519.601 563.709 519.658 563.413 519.658Z" fill="#F2F2F2"/>
<path d="M642.663 495.342H589.53C588.932 495.342 588.36 495.105 587.938 494.683C587.515 494.261 587.278 493.688 587.278 493.091C587.278 492.494 587.515 491.921 587.938 491.499C588.36 491.077 588.932 490.839 589.53 490.839H642.663C643.26 490.839 643.833 491.077 644.255 491.499C644.677 491.921 644.915 492.494 644.915 493.091C644.915 493.688 644.677 494.261 644.255 494.683C643.833 495.105 643.26 495.342 642.663 495.342Z" fill="#F2F2F2"/>
<path d="M642.663 519.658H589.53C588.932 519.658 588.36 519.421 587.938 518.998C587.515 518.576 587.278 518.003 587.278 517.406C587.278 516.809 587.515 516.236 587.938 515.814C588.36 515.392 588.932 515.155 589.53 515.155H642.663C643.26 515.155 643.833 515.392 644.255 515.814C644.677 516.236 644.915 516.809 644.915 517.406C644.915 518.003 644.677 518.576 644.255 518.998C643.833 519.421 643.26 519.658 642.663 519.658Z" fill="#F2F2F2"/>
<path d="M731.82 495.342H678.686C678.089 495.342 677.516 495.105 677.094 494.683C676.672 494.261 676.435 493.688 676.435 493.091C676.435 492.494 676.672 491.921 677.094 491.499C677.516 491.077 678.089 490.839 678.686 490.839H731.82C732.417 490.839 732.99 491.077 733.412 491.499C733.834 491.921 734.071 492.494 734.071 493.091C734.071 493.688 733.834 494.261 733.412 494.683C732.99 495.105 732.417 495.342 731.82 495.342Z" fill="#F2F2F2"/>
<path d="M766.942 470.126H475.157C474.56 470.126 473.987 469.889 473.565 469.467C473.143 469.045 472.906 468.472 472.906 467.875C472.906 467.278 473.143 466.705 473.565 466.283C473.987 465.861 474.56 465.623 475.157 465.623H766.942C767.539 465.623 768.112 465.861 768.534 466.283C768.956 466.705 769.194 467.278 769.194 467.875C769.194 468.472 768.956 469.045 768.534 469.467C768.112 469.889 767.539 470.126 766.942 470.126Z" fill="#F2F2F2"/>
<path d="M431.029 470.126H377.895C377.298 470.126 376.725 469.889 376.303 469.467C375.881 469.045 375.644 468.472 375.644 467.875C375.644 467.278 375.881 466.705 376.303 466.283C376.725 465.861 377.298 465.623 377.895 465.623H431.029C431.626 465.623 432.199 465.861 432.621 466.283C433.043 466.705 433.28 467.278 433.28 467.875C433.28 468.472 433.043 469.045 432.621 469.467C432.199 469.889 431.626 470.126 431.029 470.126Z" fill="#F2F2F2"/>
<path d="M766.942 544.874H475.157C474.861 544.874 474.568 544.817 474.294 544.704C474.02 544.591 473.771 544.425 473.562 544.216C473.352 544.007 473.186 543.758 473.073 543.485C472.959 543.212 472.901 542.918 472.901 542.622C472.901 542.326 472.959 542.033 473.073 541.76C473.186 541.486 473.352 541.238 473.562 541.029C473.771 540.82 474.02 540.654 474.294 540.541C474.568 540.428 474.861 540.37 475.157 540.371H766.942C767.539 540.371 768.112 540.608 768.534 541.03C768.956 541.453 769.194 542.025 769.194 542.622C769.194 543.219 768.956 543.792 768.534 544.214C768.112 544.637 767.539 544.874 766.942 544.874Z" fill="#F2F2F2"/>
<path d="M431.029 544.874H377.895C377.599 544.874 377.306 544.817 377.032 544.704C376.759 544.591 376.51 544.425 376.3 544.216C376.091 544.007 375.924 543.758 375.811 543.485C375.697 543.212 375.639 542.918 375.639 542.622C375.639 542.326 375.697 542.033 375.811 541.76C375.924 541.486 376.091 541.238 376.3 541.029C376.51 540.82 376.759 540.654 377.032 540.541C377.306 540.428 377.599 540.37 377.895 540.371H431.029C431.325 540.37 431.618 540.428 431.892 540.541C432.166 540.654 432.414 540.82 432.624 541.029C432.834 541.238 433 541.486 433.113 541.76C433.227 542.033 433.285 542.326 433.285 542.622C433.285 542.918 433.227 543.212 433.113 543.485C433 543.758 432.834 544.007 432.624 544.216C432.414 544.425 432.166 544.591 431.892 544.704C431.618 544.817 431.325 544.874 431.029 544.874Z" fill="#F2F2F2"/>
<path d="M519.06 239.13L447.014 310.275L519.06 381.42L535.27 365.21L480.786 310.725L535.72 255.79L519.06 239.13Z" fill="#3E9C87"/>
<path d="M625.327 239.13L697.373 310.275L625.327 381.42L609.117 365.21L663.602 310.725L608.667 255.79L625.327 239.13Z" fill="#3E9C87"/>
<path d="M216.194 24C221.164 24 225.194 19.971 225.194 15C225.194 10.029 221.164 6 216.194 6C211.223 6 207.194 10.029 207.194 15C207.194 19.971 211.223 24 216.194 24Z" fill="#3E9C87"/>
<path d="M240.194 24C245.164 24 249.194 19.971 249.194 15C249.194 10.029 245.164 6 240.194 6C235.223 6 231.194 10.029 231.194 15C231.194 19.971 235.223 24 240.194 24Z" fill="#3E9C87"/>
<path d="M264.194 24C269.164 24 273.194 19.971 273.194 15C273.194 10.029 269.164 6 264.194 6C259.223 6 255.194 10.029 255.194 15C255.194 19.971 259.223 24 264.194 24Z" fill="#3E9C87"/>
<path opacity="0.1" d="M948.194 30H196.194V33H948.194V30Z" fill="black"/>
<path d="M122.622 589.091C120.024 590.538 117.283 591.712 114.444 592.594C109.365 593.981 103.936 593.472 98.8064 594.657C96.706 595.142 94.4201 596.156 93.7521 598.205C93.2622 599.709 93.7952 601.332 94.3056 602.829C99.9741 619.448 103.391 637.095 112.431 652.149C116.23 658.472 120.945 664.197 126.423 669.137C128.479 670.989 130.808 672.801 133.559 673.092C134.827 673.226 136.108 673.023 137.272 672.503C138.437 671.984 139.444 671.167 140.191 670.134C140.939 669.101 141.401 667.889 141.53 666.621C141.66 665.352 141.453 664.072 140.929 662.91C140.119 661.108 138.612 659.713 137.64 657.994C136.587 655.804 135.969 653.429 135.821 651.003C134.928 643.895 134.067 636.466 136.53 629.738C138.182 625.226 141.212 621.379 143.737 617.291C146.261 613.202 148.358 608.519 147.797 603.747C147.413 600.49 145.825 597.51 144.147 594.693C142.465 591.87 139.142 584.284 135.764 583.342C132.257 582.364 125.68 587.524 122.622 589.091Z" fill="#2F2E41"/>
<path d="M215.057 646.5C215.109 648.108 214.885 649.713 214.393 651.245C213.336 654.038 210.712 655.951 209.357 658.612C207.472 662.313 208.326 666.786 209.575 670.747C210.358 673.23 211.385 675.814 213.488 677.35C215.286 678.464 217.331 679.119 219.442 679.257C237.478 681.753 255.8 680.321 274 680.844C277.317 680.939 280.83 681.055 283.725 679.434C286.621 677.813 288.411 673.737 286.442 671.066C284.673 668.668 281.177 668.69 278.2 668.549C270.448 668.155 263.067 665.114 257.287 659.934C256.147 658.96 255.158 657.822 254.353 656.557C253.734 655.435 253.221 654.257 252.819 653.04C250.268 646.128 247.232 639.406 243.736 632.921C242.757 631.106 241.649 629.216 239.83 628.245C238.498 627.639 237.053 627.324 235.59 627.319C231.054 627.025 219.307 625.481 215.799 629.009C212.558 632.268 215.128 642.36 215.057 646.5Z" fill="#2F2E41"/>
<path d="M242.971 243.695C258.973 243.695 271.946 230.723 271.946 214.72C271.946 198.718 258.973 185.745 242.971 185.745C226.968 185.745 213.996 198.718 213.996 214.72C213.996 230.723 226.968 243.695 242.971 243.695Z" fill="#FBBEBE"/>
<path d="M216.806 238.646C215.082 243.26 212.159 247.593 207.905 250.076L247.98 258.25C246.526 252.402 246.335 246.31 247.418 240.381C247.816 238.946 247.898 237.442 247.658 235.972C246.904 233.065 243.631 231.666 240.703 230.998C233.389 229.331 226.921 228.437 220.124 225.206C218.047 228.763 218.337 234.545 216.806 238.646Z" fill="#FBBEBE"/>
<path d="M207.571 239.227C211.882 237.276 216.579 236.327 221.309 236.45C226.039 236.574 230.68 237.767 234.884 239.941C240.022 242.648 244.276 246.735 248.455 250.767C252.308 254.484 256.418 258.739 256.691 264.086C256.824 266.676 256.015 269.208 255.607 271.769C254.874 277.066 255.806 282.459 258.275 287.202C260.744 291.945 264.628 295.802 269.387 298.239C272.571 303.542 273.228 309.968 273.277 316.153C273.462 339.589 266.067 363.314 271.346 386.148C272.586 391.51 274.508 396.702 275.578 402.1C276.965 409.091 276.897 416.279 277.622 423.369C278.409 431.047 280.126 438.601 282.736 445.865C280.992 448.639 277.362 449.702 274.093 449.478C270.825 449.253 267.768 447.834 264.851 446.342C250.728 439.115 237.792 429.585 223.164 423.442C213.487 419.379 203.177 416.847 193.789 412.154C184.4 407.461 175.669 400.012 172.798 389.916C171.557 385.551 171.48 380.951 171.413 376.413C171.127 357.299 170.862 337.977 175.023 319.319C178.692 302.866 185.764 287.125 187.307 270.338C187.809 264.874 187.82 259.025 190.873 254.465C195.188 248.02 204.505 246.351 207.571 239.227Z" fill="#2F2E41"/>
<path d="M226.492 215.129C228.199 212.903 231.492 212.599 234.219 213.258C236.947 213.916 239.462 215.322 242.217 215.856C242.843 216.034 243.499 216.079 244.144 215.988C244.789 215.898 245.407 215.674 245.96 215.33C246.923 214.382 247.499 213.109 247.576 211.76C248.54 206.019 248.766 200.178 248.246 194.38C248.103 193.566 248.157 192.73 248.405 191.942C249.087 190.299 251.168 189.908 252.867 189.38C255.671 188.433 258.079 186.578 259.711 184.109C261.343 181.64 262.106 178.698 261.88 175.747C261.838 174.332 261.243 172.989 260.223 172.007C259.048 171.049 257.403 170.99 255.887 170.978C248.099 170.916 240.31 170.917 232.521 170.984C229.638 171.008 226.61 171.079 224.111 172.516C222.264 173.579 220.89 175.289 219.231 176.628C214.905 180.119 209.053 180.829 203.79 182.619C201.22 183.35 198.887 184.742 197.022 186.654C195.272 188.654 194.43 191.628 195.53 194.047C196.094 195.055 196.724 196.025 197.416 196.951C200.521 201.915 198.454 208.354 198.918 214.191C199.497 221.479 210.283 233.302 217.597 235.027C229.404 237.811 222.583 219.914 226.492 215.129Z" fill="#2F2E41"/>
<path d="M210.134 534.683C210.879 540.004 211.835 545.344 211.58 550.712C211.223 558.206 208.52 565.426 208.021 572.911C207.648 578.502 208.511 584.153 207.734 589.703C207.237 593.256 206.078 596.681 205.361 600.196C204.225 605.925 204.257 611.824 205.455 617.54C206.654 623.256 208.993 628.672 212.334 633.462C212.825 634.282 213.523 634.958 214.358 635.423C215.158 635.719 216.015 635.833 216.865 635.755C225.299 635.583 233.71 634.819 242.036 633.467C242.645 633.442 243.223 633.187 243.652 632.754C243.84 632.467 243.96 632.141 244.003 631.8C245.547 623.864 242.026 615.907 241.131 607.872C240.175 599.292 242.234 590.694 244.277 582.307C245.204 578.169 246.361 574.087 247.744 570.079C248.732 567.382 249.925 564.758 250.781 562.016C251.994 557.709 252.732 553.282 252.983 548.814C253.577 541.764 253.892 534.697 253.928 527.615C254.13 520.903 253.571 514.191 252.263 507.605C250.385 499.267 246.539 491.524 242.727 483.875C240.688 484.363 238.775 485.273 237.109 486.545C232.196 489.726 227.067 492.56 221.759 495.025C218.192 496.682 211.237 497.859 208.973 501.311C206.741 504.716 208.181 511.662 208.352 515.417C208.645 521.862 209.239 528.284 210.134 534.683Z" fill="#2F2E41"/>
<path opacity="0.1" d="M210.134 534.683C210.879 540.004 211.835 545.344 211.58 550.712C211.223 558.206 208.52 565.426 208.021 572.911C207.648 578.502 208.511 584.153 207.734 589.703C207.237 593.256 206.078 596.681 205.361 600.196C204.225 605.925 204.257 611.824 205.455 617.54C206.654 623.256 208.993 628.672 212.334 633.462C212.825 634.282 213.523 634.958 214.358 635.423C215.158 635.719 216.015 635.833 216.865 635.755C225.299 635.583 233.71 634.819 242.036 633.467C242.645 633.442 243.223 633.187 243.652 632.754C243.84 632.467 243.96 632.141 244.003 631.8C245.547 623.864 242.026 615.907 241.131 607.872C240.175 599.292 242.234 590.694 244.277 582.307C245.204 578.169 246.361 574.087 247.744 570.079C248.732 567.382 249.925 564.758 250.781 562.016C251.994 557.709 252.732 553.282 252.983 548.814C253.577 541.764 253.892 534.697 253.928 527.615C254.13 520.903 253.571 514.191 252.263 507.605C250.385 499.267 246.539 491.524 242.727 483.875C240.688 484.363 238.775 485.273 237.109 486.545C232.196 489.726 227.067 492.56 221.759 495.025C218.192 496.682 211.237 497.859 208.973 501.311C206.741 504.716 208.181 511.662 208.352 515.417C208.645 521.862 209.239 528.284 210.134 534.683Z" fill="black"/>
<path d="M170.961 421.018C167.113 431.377 172.769 442.572 177.683 452.47C189.789 476.856 198.196 502.878 206.558 528.787C207.184 530.728 207.81 532.846 207.112 534.762C206.509 536.123 205.53 537.284 204.29 538.109C198.524 542.488 191.183 544.047 184.315 546.338C177.678 548.554 171.321 551.534 165.372 555.218C160.396 558.302 155.733 561.862 151.081 565.416L136.269 576.728C135.31 577.376 134.472 578.188 133.793 579.125C132.364 581.366 132.949 584.292 133.661 586.853C135.544 593.634 137.969 600.253 140.913 606.645C141.397 608.047 142.319 609.255 143.543 610.092C145.855 611.334 148.682 609.687 150.448 607.745C152.213 605.803 153.74 603.386 156.229 602.552C158.715 601.719 161.451 602.728 164.047 602.363C168.245 601.774 171.033 597.906 174.059 594.937C186.425 582.805 207.069 583.686 220.672 572.96C222.638 571.2 224.72 569.574 226.903 568.092C229.202 566.733 231.81 565.987 234.196 564.785C241.453 561.131 246.015 553.577 248.458 545.828C250.902 538.08 251.599 529.901 253.355 521.968C254.263 517.867 255.458 513.81 255.862 509.629C256.122 505.741 256.037 501.837 255.609 497.963L250.701 437.248C250.301 432.304 249.901 427.355 249.125 422.457C234.548 422.978 219.982 423.565 205.397 423.737C193.792 423.874 181.973 424.686 170.961 421.018Z" fill="#2F2E41"/>
<path d="M165.603 435.221C167.58 438.401 172.393 438.335 175.707 436.592C179.021 434.848 181.596 431.919 184.917 430.191C189.381 427.868 194.664 427.955 199.694 428.097C207.657 428.322 215.719 428.562 223.381 430.744C231.305 433.001 239.02 437.347 247.215 436.48C248.64 436.329 250.2 435.921 250.976 434.715C251.43 433.841 251.644 432.863 251.595 431.879L251.863 424.72C252.027 423.482 251.83 422.223 251.293 421.095C250.606 420.156 249.663 419.434 248.577 419.015C236.914 413.369 223.613 412.318 210.662 411.874C204.079 411.649 197.493 411.556 190.905 411.596C185.314 411.63 178.602 410.821 173.166 412.315C165.871 414.32 161.901 429.269 165.603 435.221Z" fill="#2F2E41"/>
<path d="M238.839 247.726C223.557 247.59 209.708 237.503 194.427 237.257C192.581 237.13 190.731 237.449 189.035 238.188C186.906 239.26 185.506 241.334 183.888 243.086C179.37 247.979 172.827 250.591 168.185 255.367C163.833 259.845 161.412 266.517 163.13 272.52C164.849 278.524 171.334 283.129 177.409 281.685C179.857 273.762 184.909 266.898 191.746 262.206C195.304 259.924 199.053 257.956 202.952 256.324C209.82 253.212 217.499 250.041 224.67 252.374C227.314 253.372 229.807 254.732 232.079 256.414L244.033 264.444C242.64 258.95 241.387 252.788 238.839 247.726Z" fill="#3E9C87"/>
<path d="M175.649 276.374C173.62 278.906 176.543 282.574 176.096 285.787C175.798 287.922 174.041 289.552 173.31 291.58C172.552 293.681 172.954 296.007 172.666 298.222C172.378 299.832 171.951 301.414 171.391 302.951C170.104 307.543 169.205 312.235 168.705 316.977L166.03 336.953C165.566 339.959 165.283 342.99 165.184 346.03C165.319 348.303 165.167 350.583 164.732 352.817C164.139 355 162.828 356.91 161.946 358.993C161.063 361.075 160.654 363.595 161.846 365.517C157.855 368.842 156.668 375.371 159.459 379.752C159.99 380.435 160.406 381.2 160.689 382.017C160.843 383.16 160.655 384.322 160.147 385.357L157.443 392.564C156.75 394.409 156.531 397.217 158.456 397.638C156.862 399.294 155.62 401.256 154.805 403.405C154.41 404.484 154.291 405.645 154.461 406.782C154.631 407.919 155.084 408.994 155.777 409.911C156.449 410.5 157.021 411.195 157.472 411.967C157.736 413.043 157.668 414.174 157.276 415.21C156.871 416.784 156.793 418.424 157.047 420.029C157.3 421.634 157.879 423.171 158.749 424.544C159.65 425.898 160.926 426.96 162.421 427.601C163.916 428.242 165.565 428.434 167.167 428.152C172.578 426.932 177.44 425.005 182.895 426.006C194.641 428.162 206.425 430.326 217.801 433.958C230.785 438.104 243.357 444.183 256.927 445.459C257.82 445.642 258.748 445.497 259.544 445.052C260.235 444.397 260.665 443.513 260.754 442.564C262.152 436.009 263.55 429.454 264.948 422.899C266.638 415.634 267.925 408.28 268.803 400.872C269.28 396.091 269.416 391.283 269.552 386.479L270.633 348.248C271.139 342.614 270.388 336.937 268.433 331.629L262.215 311.781C258.667 300.454 250.528 290.409 247.63 278.899C245.796 271.614 244.441 263.796 239.522 258.118C232.509 250.023 220.377 248.764 209.758 250.156C204.961 250.784 200.122 251.87 195.973 254.357C191.175 257.234 187.64 261.766 184.22 266.194C181.402 269.843 178.533 272.776 175.649 276.374Z" fill="#3E9C87"/>
<path d="M200.444 388.823C201.319 392.596 203.156 396.075 204.281 399.78C206.165 405.989 206.006 412.676 207.886 418.886C208.676 421.492 209.819 423.995 210.386 426.659C211.707 432.869 209.778 439.294 207.382 445.174C204.987 451.055 202.069 456.852 201.291 463.154C200.743 467.592 201.53 472.604 204.951 475.485C208.503 478.475 213.664 478.272 218.29 477.874C219.951 477.828 221.59 477.487 223.131 476.866C226.669 475.193 228.159 471.007 228.986 467.181C231.757 454.362 230.966 441.075 230.16 427.985L228.054 393.75C227.649 387.16 227.214 380.432 225.183 374.104C224.445 371.802 223.157 367.15 221.054 365.68C218.972 364.225 213.024 364.16 210.446 364.039C198.348 363.47 198.483 380.356 200.444 388.823Z" fill="#FBBEBE"/>
<path d="M213.848 262.423C211.377 261.13 208.265 261.687 205.876 263.128C203.57 264.707 201.551 266.668 199.904 268.926C194.566 275.443 188.914 282.921 189.706 291.308C190.002 294.453 191.207 297.429 192.023 300.48C195.602 313.86 191.644 328.01 192.098 341.853C192.361 349.852 194.101 357.72 195.835 365.533C196.188 367.127 196.755 368.973 198.297 369.51C199.456 369.913 200.708 369.395 201.855 368.959C206.127 367.38 210.717 366.853 215.236 367.423C219.755 367.992 224.071 369.641 227.818 372.231C230.683 370.702 229.609 365.868 228.967 362.685C227.058 353.228 229.649 343.471 232.795 334.35C235.941 325.229 239.706 316.12 240.227 306.485C240.818 295.569 237.198 284.915 233.627 274.582C232.848 272.327 231.996 269.962 230.189 268.404C228.641 267.254 226.868 266.443 224.986 266.027C221.193 264.906 217.352 264.258 213.848 262.423Z" fill="#2F2E41"/>
</svg>
