<svg width="164" height="164" viewBox="0 0 164 164" fill="none" xmlns="http://www.w3.org/2000/svg">
<path d="M82 164C127.287 164 164 127.287 164 82C164 36.7127 127.287 0 82 0C36.7127 0 0 36.7127 0 82C0 127.287 36.7127 164 82 164Z" fill="#F04E3C"/>
<path d="M62.2838 34C46.687 34 34 46.6987 34 62.2996V102.716C34 118.313 46.6987 131 62.2996 131H102.716C118.313 131 131 118.301 131 102.7V62.2838C131 46.687 118.301 34 102.7 34H62.2838ZM110.792 50.1667C113.023 50.1667 114.833 51.9773 114.833 54.2083C114.833 56.4393 113.023 58.25 110.792 58.25C108.561 58.25 106.75 56.4393 106.75 54.2083C106.75 51.9773 108.561 50.1667 110.792 50.1667ZM82.5 58.25C95.8739 58.25 106.75 69.1261 106.75 82.5C106.75 95.8739 95.8739 106.75 82.5 106.75C69.1261 106.75 58.25 95.8739 58.25 82.5C58.25 69.1261 69.1261 58.25 82.5 58.25ZM82.5 66.3333C78.2123 66.3333 74.1003 68.0366 71.0684 71.0684C68.0366 74.1003 66.3333 78.2123 66.3333 82.5C66.3333 86.7877 68.0366 90.8997 71.0684 93.9316C74.1003 96.9634 78.2123 98.6667 82.5 98.6667C86.7877 98.6667 90.8997 96.9634 93.9316 93.9316C96.9634 90.8997 98.6667 86.7877 98.6667 82.5C98.6667 78.2123 96.9634 74.1003 93.9316 71.0684C90.8997 68.0366 86.7877 66.3333 82.5 66.3333Z" fill="#EDF0F1"/>
</svg>
