<svg width="672" height="103" viewBox="0 0 672 103" fill="none" xmlns="http://www.w3.org/2000/svg">
<path d="M60.712 1.208H83.176V101H60.712V58.664H22.984V101H0.520001V1.208H22.984V39.368H60.712V1.208ZM173.086 101C172.03 97.544 170.83 93.992 169.486 90.344C168.238 86.696 166.99 83.048 165.742 79.4H126.862C125.614 83.048 124.318 86.696 122.974 90.344C121.726 93.992 120.574 97.544 119.518 101H96.19C99.934 90.248 103.486 80.312 106.846 71.192C110.206 62.072 113.47 53.48 116.638 45.416C119.902 37.352 123.07 29.72 126.142 22.52C129.31 15.224 132.574 8.11999 135.934 1.208H157.39C160.654 8.11999 163.87 15.224 167.038 22.52C170.206 29.72 173.374 37.352 176.542 45.416C179.806 53.48 183.118 62.072 186.478 71.192C189.838 80.312 193.39 90.248 197.134 101H173.086ZM146.158 23.816C145.678 25.256 144.958 27.224 143.998 29.72C143.038 32.216 141.934 35.096 140.686 38.36C139.438 41.624 138.046 45.224 136.51 49.16C135.07 53.096 133.582 57.224 132.046 61.544H160.414C158.878 57.224 157.39 53.096 155.95 49.16C154.51 45.224 153.118 41.624 151.774 38.36C150.526 35.096 149.422 32.216 148.462 29.72C147.502 27.224 146.734 25.256 146.158 23.816ZM232.284 42.248C236.316 35.432 240.156 28.616 243.804 21.8C247.452 14.984 250.812 8.11999 253.884 1.208H278.652C273.18 11.96 267.516 22.376 261.66 32.456C255.804 42.536 249.612 52.664 243.084 62.84V101H220.62V63.128C214.092 52.952 207.852 42.776 201.9 32.6C196.044 22.424 190.38 11.96 184.908 1.208H210.972C214.044 8.11999 217.356 14.984 220.908 21.8C224.46 28.616 228.252 35.432 232.284 42.248ZM313.375 82.712C314.431 82.808 315.631 82.904 316.975 83C318.415 83 320.095 83 322.015 83C333.247 83 341.551 80.168 346.927 74.504C352.399 68.84 355.135 61.016 355.135 51.032C355.135 40.568 352.543 32.648 347.359 27.272C342.175 21.896 333.967 19.208 322.735 19.208C321.199 19.208 319.615 19.256 317.983 19.352C316.351 19.352 314.815 19.448 313.375 19.64V82.712ZM378.319 51.032C378.319 59.672 376.975 67.208 374.287 73.64C371.599 80.072 367.759 85.4 362.767 89.624C357.871 93.848 351.871 97.016 344.767 99.128C337.663 101.24 329.695 102.296 320.863 102.296C316.831 102.296 312.127 102.104 306.751 101.72C301.375 101.432 296.095 100.76 290.911 99.704V2.504C296.095 1.544 301.471 0.919998 307.039 0.631996C312.703 0.247995 317.551 0.055995 321.583 0.055995C330.127 0.055995 337.855 1.01599 344.767 2.93599C351.775 4.856 357.775 7.88 362.767 12.008C367.759 16.136 371.599 21.416 374.287 27.848C376.975 34.28 378.319 42.008 378.319 51.032ZM457.275 1.208H479.739V101H457.275V58.664H419.547V101H397.083V1.208H419.547V39.368H457.275V1.208ZM502.833 101V1.208H570.225V20.072H525.297V39.656H565.185V58.088H525.297V82.136H573.537V101H502.833ZM619.393 0.055995C634.369 0.055995 645.841 2.74399 653.809 8.11999C661.777 13.4 665.761 21.656 665.761 32.888C665.761 39.896 664.129 45.608 660.865 50.024C657.697 54.344 653.089 57.752 647.041 60.248C649.057 62.744 651.169 65.624 653.377 68.888C655.585 72.056 657.745 75.416 659.857 78.968C662.065 82.424 664.177 86.072 666.193 89.912C668.209 93.656 670.081 97.352 671.809 101H646.609C644.785 97.736 642.913 94.424 640.993 91.064C639.169 87.704 637.249 84.44 635.233 81.272C633.313 78.104 631.393 75.128 629.473 72.344C627.553 69.464 625.633 66.872 623.713 64.568H612.625V101H590.161V2.648C595.057 1.688 600.097 1.016 605.281 0.631996C610.561 0.247995 615.265 0.055995 619.393 0.055995ZM620.689 19.208C619.057 19.208 617.569 19.256 616.225 19.352C614.977 19.448 613.777 19.544 612.625 19.64V46.712H618.961C627.409 46.712 633.457 45.656 637.105 43.544C640.753 41.432 642.577 37.832 642.577 32.744C642.577 27.848 640.705 24.392 636.961 22.376C633.313 20.264 627.889 19.208 620.689 19.208Z" fill="#F04E3C"/>
</svg>
