<svg width="195" height="195" viewBox="0 0 195 195" fill="none" xmlns="http://www.w3.org/2000/svg">
<path d="M97.5 195C151.348 195 195 151.348 195 97.5C195 43.6522 151.348 0 97.5 0C43.6522 0 0 43.6522 0 97.5C0 151.348 43.6522 195 97.5 195Z" fill="#24252A"/>
<path d="M97.4 131.5C92.5333 131.5 88.1 130.7 84.1 129.1C80.1 127.5 76.6667 125.167 73.8 122.1C70.9333 119.033 68.7 115.267 67.1 110.8C65.5667 106.267 64.8 101.1 64.8 95.3C64.8 89.5 65.6667 84.3667 67.4 79.9C69.2 75.3667 71.6 71.5667 74.6 68.5C77.6 65.4333 81.1 63.1 85.1 61.5C89.1 59.9 93.3667 59.1 97.9 59.1C100.767 59.1 103.333 59.3 105.6 59.7C107.933 60.1 109.933 60.5667 111.6 61.1C113.333 61.6333 114.733 62.1667 115.8 62.7C116.867 63.2333 117.6 63.6333 118 63.9L115.2 71.9C114.6 71.5 113.733 71.0667 112.6 70.6C111.467 70.1333 110.167 69.6667 108.7 69.2C107.3 68.7333 105.733 68.3667 104 68.1C102.333 67.7667 100.633 67.6 98.9 67.6C95.2333 67.6 91.9333 68.2333 89 69.5C86.0667 70.7667 83.5667 72.6 81.5 75C79.4333 77.4 77.8333 80.3333 76.7 83.8C75.6333 87.2 75.1 91.0333 75.1 95.3C75.1 99.4333 75.5667 103.2 76.5 106.6C77.5 110 78.9667 112.933 80.9 115.4C82.8333 117.8 85.2333 119.667 88.1 121C91.0333 122.333 94.4333 123 98.3 123C102.767 123 106.467 122.533 109.4 121.6C112.333 120.667 114.533 119.833 116 119.1L118.5 127.1C118.033 127.433 117.2 127.867 116 128.4C114.8 128.867 113.3 129.333 111.5 129.8C109.7 130.267 107.6 130.667 105.2 131C102.8 131.333 100.2 131.5 97.4 131.5Z" fill="#3E9C87"/>
</svg>
