<svg width="195" height="195" viewBox="0 0 195 195" fill="none" xmlns="http://www.w3.org/2000/svg">
<path d="M97.5 195C151.348 195 195 151.348 195 97.5C195 43.6522 151.348 0 97.5 0C43.6522 0 0 43.6522 0 97.5C0 151.348 43.6522 195 97.5 195Z" fill="#24252A"/>
<path d="M88.7445 145.2C94.6779 145.2 98.9112 144.033 101.445 141.7C104.045 139.367 105.345 136.233 105.345 132.3C105.345 129.767 104.811 127.633 103.745 125.9C102.678 124.167 101.278 122.8 99.5445 121.8C97.8112 120.733 95.7779 120 93.4445 119.6C91.1779 119.133 88.8445 118.9 86.4445 118.9H84.0445V111.3H87.3445C89.0112 111.3 90.7112 111.133 92.4445 110.8C94.2445 110.467 95.8779 109.867 97.3445 109C98.8112 108.133 100.011 106.967 100.945 105.5C101.878 103.967 102.345 102.067 102.345 99.8C102.345 97.9333 102.011 96.3333 101.345 95C100.678 93.6667 99.7779 92.5667 98.6445 91.7C97.5779 90.8333 96.3112 90.2333 94.8445 89.9C93.4445 89.5 91.9445 89.3 90.3445 89.3C87.1445 89.3 84.4112 89.7667 82.1445 90.7C79.9445 91.6333 78.0779 92.6 76.5445 93.6L72.9445 86.5C73.7445 85.9667 74.7445 85.4 75.9445 84.8C77.2112 84.1333 78.6112 83.5333 80.1445 83C81.6779 82.4667 83.3112 82.0333 85.0445 81.7C86.8445 81.3 88.7112 81.1 90.6445 81.1C94.3112 81.1 97.4779 81.5667 100.145 82.5C102.811 83.3667 105.011 84.6333 106.745 86.3C108.478 87.9 109.778 89.8333 110.645 92.1C111.511 94.3 111.945 96.7 111.945 99.3C111.945 102.9 110.911 106 108.845 108.6C106.778 111.133 104.278 113.067 101.345 114.4C103.145 114.933 104.878 115.7 106.545 116.7C108.211 117.7 109.645 118.967 110.845 120.5C112.111 122.033 113.111 123.8 113.845 125.8C114.645 127.8 115.045 130.033 115.045 132.5C115.045 135.5 114.511 138.3 113.445 140.9C112.445 143.433 110.845 145.633 108.645 147.5C106.511 149.367 103.811 150.833 100.545 151.9C97.2779 152.967 93.4112 153.5 88.9445 153.5C87.2112 153.5 85.4112 153.367 83.5445 153.1C81.7445 152.833 80.0445 152.5 78.4445 152.1C76.8445 151.7 75.4445 151.3 74.2445 150.9C73.0445 150.5 72.1779 150.167 71.6445 149.9L73.4445 141.8C74.5779 142.333 76.4445 143.033 79.0445 143.9C81.7112 144.767 84.9445 145.2 88.7445 145.2Z" fill="#3E9C87"/>
<path d="M70.432 71.72C68.096 71.72 65.968 71.336 64.048 70.568C62.128 69.8 60.48 68.68 59.104 67.208C57.728 65.736 56.656 63.928 55.888 61.784C55.152 59.608 54.784 57.128 54.784 54.344C54.784 51.56 55.2 49.096 56.032 46.952C56.896 44.776 58.048 42.952 59.488 41.48C60.928 40.008 62.608 38.888 64.528 38.12C66.448 37.352 68.496 36.968 70.672 36.968C72.048 36.968 73.28 37.064 74.368 37.256C75.488 37.448 76.448 37.672 77.248 37.928C78.08 38.184 78.752 38.44 79.264 38.696C79.776 38.952 80.128 39.144 80.32 39.272L78.976 43.112C78.688 42.92 78.272 42.712 77.728 42.488C77.184 42.264 76.56 42.04 75.856 41.816C75.184 41.592 74.432 41.416 73.6 41.288C72.8 41.128 71.984 41.048 71.152 41.048C69.392 41.048 67.808 41.352 66.4 41.96C64.992 42.568 63.792 43.448 62.8 44.6C61.808 45.752 61.04 47.16 60.496 48.824C59.984 50.456 59.728 52.296 59.728 54.344C59.728 56.328 59.952 58.136 60.4 59.768C60.88 61.4 61.584 62.808 62.512 63.992C63.44 65.144 64.592 66.04 65.968 66.68C67.376 67.32 69.008 67.64 70.864 67.64C73.008 67.64 74.784 67.416 76.192 66.968C77.6 66.52 78.656 66.12 79.36 65.768L80.56 69.608C80.336 69.768 79.936 69.976 79.36 70.232C78.784 70.456 78.064 70.68 77.2 70.904C76.336 71.128 75.328 71.32 74.176 71.48C73.024 71.64 71.776 71.72 70.432 71.72ZM94.0904 67.688C98.9544 67.688 101.386 66.024 101.386 62.696C101.386 61.672 101.162 60.808 100.714 60.104C100.298 59.368 99.7224 58.744 98.9864 58.232C98.2504 57.688 97.4024 57.224 96.4424 56.84C95.5144 56.456 94.5224 56.072 93.4664 55.688C92.2504 55.272 91.0984 54.808 90.0104 54.296C88.9224 53.752 87.9784 53.128 87.1784 52.424C86.3784 51.688 85.7384 50.824 85.2584 49.832C84.8104 48.84 84.5864 47.64 84.5864 46.232C84.5864 43.32 85.5784 41.048 87.5624 39.416C89.5464 37.784 92.2824 36.968 95.7704 36.968C97.7864 36.968 99.6104 37.192 101.242 37.64C102.906 38.056 104.122 38.52 104.89 39.032L103.402 42.824C102.73 42.408 101.722 42.008 100.378 41.624C99.0664 41.208 97.5304 41 95.7704 41C94.8744 41 94.0424 41.096 93.2744 41.288C92.5064 41.48 91.8344 41.768 91.2584 42.152C90.6824 42.536 90.2184 43.032 89.8664 43.64C89.5464 44.216 89.3864 44.904 89.3864 45.704C89.3864 46.6 89.5624 47.352 89.9144 47.96C90.2664 48.568 90.7624 49.112 91.4024 49.592C92.0424 50.04 92.7784 50.456 93.6104 50.84C94.4744 51.224 95.4184 51.608 96.4424 51.992C97.8824 52.568 99.1944 53.144 100.378 53.72C101.594 54.296 102.634 54.984 103.498 55.784C104.394 56.584 105.082 57.544 105.562 58.664C106.042 59.752 106.282 61.08 106.282 62.648C106.282 65.56 105.21 67.8 103.066 69.368C100.954 70.936 97.9624 71.72 94.0904 71.72C92.7784 71.72 91.5624 71.624 90.4424 71.432C89.3544 71.272 88.3784 71.08 87.5144 70.856C86.6504 70.6 85.8984 70.344 85.2584 70.088C84.6504 69.8 84.1704 69.56 83.8184 69.368L85.2104 65.528C85.9464 65.944 87.0664 66.408 88.5704 66.92C90.0744 67.432 91.9144 67.688 94.0904 67.688ZM119.637 67.688C124.501 67.688 126.933 66.024 126.933 62.696C126.933 61.672 126.709 60.808 126.261 60.104C125.845 59.368 125.269 58.744 124.533 58.232C123.797 57.688 122.949 57.224 121.989 56.84C121.061 56.456 120.069 56.072 119.013 55.688C117.797 55.272 116.645 54.808 115.557 54.296C114.469 53.752 113.525 53.128 112.725 52.424C111.925 51.688 111.285 50.824 110.805 49.832C110.357 48.84 110.133 47.64 110.133 46.232C110.133 43.32 111.125 41.048 113.109 39.416C115.093 37.784 117.829 36.968 121.317 36.968C123.333 36.968 125.157 37.192 126.789 37.64C128.453 38.056 129.669 38.52 130.437 39.032L128.949 42.824C128.277 42.408 127.269 42.008 125.925 41.624C124.613 41.208 123.077 41 121.317 41C120.421 41 119.589 41.096 118.821 41.288C118.053 41.48 117.381 41.768 116.805 42.152C116.229 42.536 115.765 43.032 115.413 43.64C115.093 44.216 114.933 44.904 114.933 45.704C114.933 46.6 115.109 47.352 115.461 47.96C115.813 48.568 116.309 49.112 116.949 49.592C117.589 50.04 118.325 50.456 119.157 50.84C120.021 51.224 120.965 51.608 121.989 51.992C123.429 52.568 124.741 53.144 125.925 53.72C127.141 54.296 128.181 54.984 129.045 55.784C129.941 56.584 130.629 57.544 131.109 58.664C131.589 59.752 131.829 61.08 131.829 62.648C131.829 65.56 130.757 67.8 128.613 69.368C126.501 70.936 123.509 71.72 119.637 71.72C118.325 71.72 117.109 71.624 115.989 71.432C114.901 71.272 113.925 71.08 113.061 70.856C112.197 70.6 111.445 70.344 110.805 70.088C110.197 69.8 109.717 69.56 109.365 69.368L110.757 65.528C111.493 65.944 112.613 66.408 114.117 66.92C115.621 67.432 117.461 67.688 119.637 67.688Z" fill="#3E9C87"/>
</svg>
