<svg width="195" height="195" viewBox="0 0 195 195" fill="none" xmlns="http://www.w3.org/2000/svg">
<path d="M97.5 195C151.348 195 195 151.348 195 97.5C195 43.6522 151.348 0 97.5 0C43.6522 0 0 43.6522 0 97.5C0 151.348 43.6522 195 97.5 195Z" fill="#24252A"/>
<path d="M82.9 110.7C82.9 114.033 82.5333 117.133 81.8 120C81.1333 122.867 79.9 125.4 78.1 127.6C76.3667 129.733 74 131.433 71 132.7C68.0667 133.9 64.3667 134.5 59.9 134.5C57.6333 134.5 55.5333 134.3 53.6 133.9C51.7333 133.567 50.0333 133.133 48.5 132.6C46.9667 132 45.6333 131.4 44.5 130.8C43.3667 130.133 42.4667 129.5 41.8 128.9L45.6 121.2C47 122.2 48.8 123.267 51 124.4C53.2667 125.467 56.0667 126 59.4 126C64.2 126 67.7 124.8 69.9 122.4C72.1 119.933 73.2 115.733 73.2 109.8V63.7H82.9V110.7ZM115.7 126.1C125.833 126.1 130.9 122.633 130.9 115.7C130.9 113.567 130.433 111.767 129.5 110.3C128.633 108.767 127.433 107.467 125.9 106.4C124.367 105.267 122.6 104.3 120.6 103.5C118.667 102.7 116.6 101.9 114.4 101.1C111.867 100.233 109.467 99.2667 107.2 98.2C104.933 97.0667 102.967 95.7667 101.3 94.3C99.6333 92.7667 98.3 90.9667 97.3 88.9C96.3667 86.8333 95.9 84.3333 95.9 81.4C95.9 75.3333 97.9667 70.6 102.1 67.2C106.233 63.8 111.933 62.1 119.2 62.1C123.4 62.1 127.2 62.5667 130.6 63.5C134.067 64.3667 136.6 65.3333 138.2 66.4L135.1 74.3C133.7 73.4333 131.6 72.6 128.8 71.8C126.067 70.9333 122.867 70.5 119.2 70.5C117.333 70.5 115.6 70.7 114 71.1C112.4 71.5 111 72.1 109.8 72.9C108.6 73.7 107.633 74.7333 106.9 76C106.233 77.2 105.9 78.6333 105.9 80.3C105.9 82.1667 106.267 83.7333 107 85C107.733 86.2667 108.767 87.4 110.1 88.4C111.433 89.3333 112.967 90.2 114.7 91C116.5 91.8 118.467 92.6 120.6 93.4C123.6 94.6 126.333 95.8 128.8 97C131.333 98.2 133.5 99.6333 135.3 101.3C137.167 102.967 138.6 104.967 139.6 107.3C140.6 109.567 141.1 112.333 141.1 115.6C141.1 121.667 138.867 126.333 134.4 129.6C130 132.867 123.767 134.5 115.7 134.5C112.967 134.5 110.433 134.3 108.1 133.9C105.833 133.567 103.8 133.167 102 132.7C100.2 132.167 98.6333 131.633 97.3 131.1C96.0333 130.5 95.0333 130 94.3 129.6L97.2 121.6C98.7333 122.467 101.067 123.433 104.2 124.5C107.333 125.567 111.167 126.1 115.7 126.1Z" fill="#3E9C87"/>
</svg>
