<svg width="195" height="195" viewBox="0 0 195 195" fill="none" xmlns="http://www.w3.org/2000/svg">
<path d="M97.5 195C151.348 195 195 151.348 195 97.5C195 43.6522 151.348 0 97.5 0C43.6522 0 0 43.6522 0 97.5C0 151.348 43.6522 195 97.5 195Z" fill="#24252A"/>
<path d="M72 63C81.7333 63 89.2 64.8667 94.4 68.6C99.6667 72.2667 102.3 77.7667 102.3 85.1C102.3 89.1 101.567 92.5333 100.1 95.4C98.7 98.2 96.6333 100.5 93.9 102.3C91.2333 104.033 87.9667 105.3 84.1 106.1C80.2333 106.9 75.8667 107.3 71 107.3H63.3V133H53.6V64.7C56.3333 64.0333 59.3667 63.6 62.7 63.4C66.1 63.1333 69.2 63 72 63ZM72.8 71.5C68.6667 71.5 65.5 71.6 63.3 71.8V99H70.6C73.9333 99 76.9333 98.8 79.6 98.4C82.2667 97.9333 84.5 97.2 86.3 96.2C88.1667 95.1333 89.6 93.7 90.6 91.9C91.6 90.1 92.1 87.8 92.1 85C92.1 82.3333 91.5667 80.1333 90.5 78.4C89.5 76.6667 88.1 75.3 86.3 74.3C84.5667 73.2333 82.5333 72.5 80.2 72.1C77.8667 71.7 75.4 71.5 72.8 71.5ZM133.04 79.9C133.84 79.9 134.74 79.9667 135.74 80.1C136.807 80.1667 137.84 80.3 138.84 80.5C139.84 80.6333 140.74 80.8 141.54 81C142.407 81.1333 143.04 81.2667 143.44 81.4L141.84 89.5C141.107 89.2333 139.873 88.9333 138.14 88.6C136.473 88.2 134.307 88 131.64 88C129.907 88 128.173 88.2 126.44 88.6C124.773 88.9333 123.673 89.1667 123.14 89.3V133H113.84V83.2C116.04 82.4 118.773 81.6667 122.04 81C125.307 80.2667 128.973 79.9 133.04 79.9Z" fill="#3E9C87"/>
</svg>
